<?xml version="1.0" encoding="UTF-8" standalone="no"?>
<!DOCTYPE svg PUBLIC "-//W3C//DTD SVG 1.1//EN" "http://www.w3.org/Graphics/SVG/1.1/DTD/svg11.dtd">
<svg width="100%" height="100%" viewBox="0 0 1080 1080" version="1.1" xmlns="http://www.w3.org/2000/svg" xmlns:xlink="http://www.w3.org/1999/xlink" xml:space="preserve" xmlns:serif="http://www.serif.com/" style="fill-rule:evenodd;clip-rule:evenodd;stroke-linejoin:round;stroke-miterlimit:2;">
    <g transform="matrix(1.59584,0,0,1.59584,-238.917,-348.205)">
        <path d="M567.603,404.075L425.613,767.691L425.612,767.693C418.757,785.059 410.245,800.883 400.076,815.165C389.88,829.485 377.049,840.827 361.582,849.19C346.12,857.552 327.28,861.741 305.059,861.741C297.968,861.741 289.792,861.056 280.528,859.684C271.266,858.312 263.205,856.596 256.344,854.537L255.824,854.382L265.568,788.614L266.197,788.719C270.284,789.4 275.222,789.968 281.011,790.422C286.801,790.876 291.399,791.103 294.805,791.103C308.991,791.103 320.929,786.662 330.611,777.768C340.346,768.825 348.263,756.426 354.376,740.578L365.567,711.074L239.331,401.626L196.083,395.447L196.083,341.299L376.437,341.299L376.437,395.443L331.209,402.245L395.199,573.792L406.333,605.508L407.504,605.508L482.961,401.909L437.733,395.447L437.733,341.299C437.733,341.299 607.606,341.299 607.606,341.299L607.606,251.406L694.65,251.406L694.65,341.299L767.795,341.299L767.795,404.075L694.65,404.075L694.65,607.16C694.65,622.685 697.817,634.002 704.23,641.09C710.608,648.14 719.287,651.65 730.254,651.65C736.608,651.65 743.698,651.082 751.527,649.948C759.365,648.812 765.67,647.676 770.441,646.54L771.107,646.382L780.172,708.095L779.65,708.249C769.601,711.218 758.125,713.731 745.221,715.786C732.312,717.843 719.918,718.87 708.037,718.87C676.398,718.87 651.76,709.964 634.106,692.196C616.467,674.442 607.606,646.105 607.606,607.16L607.606,404.075L567.603,404.075ZM567.175,403.449L608.233,403.449L608.233,607.16C608.233,645.897 617.005,674.095 634.551,691.754C652.097,709.414 676.592,718.244 708.037,718.244C719.886,718.244 732.248,717.218 745.122,715.168C757.997,713.117 769.447,710.61 779.473,707.648L770.586,647.15C765.801,648.289 759.478,649.429 751.616,650.568C743.755,651.707 736.634,652.277 730.254,652.277C719.089,652.277 710.259,648.688 703.765,641.51C697.271,634.333 694.024,622.882 694.024,607.16L694.024,403.449L767.168,403.449L767.168,341.925L694.024,341.925L694.024,252.033L608.233,252.033L608.233,341.925L438.36,341.925L438.36,394.904L483.819,401.398L407.94,606.134L405.889,606.134L394.61,574.005L330.352,401.74L375.811,394.904L375.811,341.925L196.709,341.925L196.709,394.904L239.776,401.056L366.24,711.066L354.961,740.802C348.809,756.753 340.834,769.228 331.035,778.229C321.237,787.23 309.16,791.73 294.805,791.73C291.387,791.73 286.773,791.502 280.962,791.046C275.152,790.591 270.196,790.021 266.094,789.337L256.524,853.937C263.36,855.988 271.392,857.697 280.62,859.064C289.849,860.431 297.995,861.115 305.059,861.115C327.162,861.115 345.904,856.956 361.284,848.639C376.665,840.322 389.426,829.043 399.566,814.801C409.706,800.56 418.194,784.78 425.03,767.462L567.175,403.449Z" style="fill:rgb(28,126,90);"/>
        <path d="M567.175,403.449L425.03,767.462C418.194,784.78 409.706,800.56 399.566,814.801C389.426,829.043 376.665,840.322 361.284,848.639C345.904,856.956 327.162,861.115 305.059,861.115C297.995,861.115 289.849,860.431 280.62,859.064C271.392,857.697 263.36,855.988 256.524,853.937L266.094,789.337C270.196,790.021 275.152,790.591 280.962,791.046C286.773,791.502 291.387,791.73 294.805,791.73C309.16,791.73 321.237,787.23 331.035,778.229C340.834,769.228 348.809,756.753 354.961,740.802L366.24,711.066L239.776,401.056L196.709,394.904L196.709,341.925L375.811,341.925L375.811,394.904L330.352,401.74L394.61,574.005L405.889,606.134L407.94,606.134L483.819,401.398L438.36,394.904L438.36,341.925L608.233,341.925L608.233,252.033L694.024,252.033L694.024,341.925L767.168,341.925L767.168,403.449L694.024,403.449L694.024,607.16C694.024,622.882 697.271,634.333 703.765,641.51C710.259,648.688 719.089,652.277 730.254,652.277C736.634,652.277 743.755,651.707 751.616,650.568C759.478,649.429 765.801,648.289 770.586,647.15L779.473,707.648C769.447,710.61 757.997,713.117 745.122,715.168C732.248,717.218 719.886,718.244 708.037,718.244C676.592,718.244 652.097,709.414 634.551,691.754C617.005,674.095 608.233,645.897 608.233,607.16L608.233,403.449L567.175,403.449Z" style="fill:rgb(40,179,128);"/>
    </g>
</svg>
